<svg width="250" height="450" viewBox="0 0 250 450" fill="none" xmlns="http://www.w3.org/2000/svg">
<path d="M225 0C349.264 0 450 100.736 450 225C450 349.264 349.264 450 225 450C144.633 450 74.1068 407.864 34.3086 344.479C21.6183 324.267 12.0517 301.895 6.28711 278.04C2.17723 261.032 0 243.27 0 225C0 174.298 16.7707 127.512 45.0674 89.8887L94.9277 156.81C84.1203 177.163 78 200.369 78 225C78 305.634 143.59 371 224.5 371C305.41 371 371 305.634 371 225C371 144.366 305.41 79 224.5 79C197.461 79 172.134 86.3016 150.393 99.0322L107.754 32.9248C141.898 12.0383 182.043 0 225 0Z" fill="#97B4E9"/>
</svg>
