<svg width="604" height="900" viewBox="0 0 604 900" fill="none" xmlns="http://www.w3.org/2000/svg">
<path d="M603.982 -328.628L446 244.771V193.908L194 158.269V215.868L294.8 230.269V295.068L194 280.668V338.269L411.754 369.064L408.896 379.436L285.8 410.142L194 396.821V454.422L285.8 467.741L371.929 513.612L344.964 611.483C331.274 608.547 317.067 607 302.5 607C243.199 607 189.882 632.618 153.01 673.389L89.5195 630.018C87.5997 628.818 86.5203 627.377 86.2803 625.697C86.2803 624.257 87.2402 623.177 89.1602 622.457L177 588.978V542.897L-75 507.257V561.257L22.2002 575.657L62.1602 576.018C64.32 576.018 65.5197 576.857 65.7598 578.537C66.2397 580.217 65.4001 581.537 63.2402 582.497L7.44043 605.897V623.897L63.2402 666.737C65.16 668.177 65.8802 669.737 65.4004 671.417C64.9204 673.097 63.48 673.577 61.0801 672.857L19.6797 660.978L-75 647.657V701.657L117.35 728.86C106.828 753.289 101 780.214 101 808.5C101 824.002 102.751 839.095 106.065 853.592L-274.823 1026.18L-796 -124.033L-217.852 -386L-132.54 -197.721L-47.0518 -508L603.982 -328.628ZM301.87 666.19C311.208 666.19 320.334 667.095 329.167 668.819L303.052 763.607L303.325 764.211L161.669 828.396C160.696 821.695 160.19 814.841 160.19 807.87C160.191 729.623 223.623 666.191 301.87 666.19ZM2.40039 318.215C-11.0396 318.215 -24.0005 321.215 -36.4805 327.215C-48.9603 333.455 -59.2805 342.815 -67.4404 355.295C-75.3604 368.015 -79.3203 383.975 -79.3203 403.175C-79.3203 429.575 -72.9601 450.575 -60.2402 466.175C-47.5203 482.015 -31.3196 492.935 -11.6396 498.935C-0.599731 502.535 11.2801 505.535 24 507.935C36.7198 510.575 49.5597 512.495 62.5195 513.695C75.7194 515.135 88.0797 515.855 99.5996 515.855C113.04 515.855 126 512.735 138.48 506.495C150.96 500.255 161.16 490.775 169.08 478.055C177.24 465.575 181.32 449.735 181.32 430.535C181.32 404.375 174.96 383.495 162.24 367.895C149.52 352.295 133.32 341.375 113.64 335.135C102.6 331.775 90.7198 328.775 78 326.135C65.2802 323.495 52.4403 321.455 39.4805 320.015C26.5206 318.815 14.1603 318.215 2.40039 318.215ZM384.802 466.89L344.48 448.302C342.081 447.102 340.88 445.782 340.88 444.342C340.88 442.902 342.08 442.061 344.48 441.821L392 439.302L392.429 439.207L384.802 466.89ZM6 374.735C10.56 374.735 17.0404 375.095 25.4404 375.815C34.0803 376.775 43.3203 377.975 53.1602 379.415C63.2401 380.855 72.6003 382.415 81.2402 384.095C90.12 385.775 96.9598 387.455 101.76 389.135C110.16 392.015 117 396.695 122.28 403.175C127.8 409.895 130.56 417.935 130.56 427.295C130.56 437.855 127.44 445.775 121.2 451.055C114.96 456.575 106.56 459.335 96 459.335C90.72 459.335 83.6398 458.855 74.7598 457.895C66.12 457.175 57.0001 456.095 47.4004 454.655C38.0405 453.455 29.0403 451.895 20.4004 449.975C12.0005 448.295 5.28021 446.495 0.240234 444.575C-7.91974 441.455 -14.7603 436.655 -20.2803 430.175C-25.8001 423.695 -28.5596 415.775 -28.5596 406.415C-28.5596 396.095 -25.44 388.175 -19.2002 382.655C-12.7202 377.375 -4.32001 374.735 6 374.735ZM2.40039 172.64C-7.19958 172.64 -16.8004 174.44 -26.4004 178.04C-36.0002 181.64 -44.8801 187.04 -53.04 194.24C-60.96 201.44 -67.3201 210.32 -72.1201 220.88C-76.9201 231.68 -79.3203 244.04 -79.3203 257.96C-79.3203 271.64 -77.7596 283.04 -74.6396 292.16C-71.2797 301.28 -66.5995 310.041 -60.5996 318.44L-15.5996 301.52C-19.4396 295.76 -22.56 289.88 -24.96 283.88C-27.3599 277.88 -28.5596 270.2 -28.5596 260.84C-28.5595 250.76 -25.5596 242.96 -19.5596 237.44C-13.5596 231.92 -5.27972 229.16 5.28027 229.16C10.0803 229.16 17.0403 229.64 26.1602 230.6C35.5201 231.8 45.2404 233.12 55.3203 234.56C65.6402 236.24 75.0004 237.92 83.4004 239.6C92.04 241.28 98.1597 242.6 101.76 243.56C111.6 246.92 118.92 252.32 123.72 259.76C128.52 267.44 130.92 275.72 130.92 284.6C130.92 294.199 129.96 302.24 128.04 308.72C126.12 315.44 122.88 322.04 118.32 328.52L161.16 344C167.4 337.04 172.32 328.64 175.92 318.8C179.52 308.96 181.32 297.68 181.32 284.96C181.32 258.8 174.96 237.8 162.24 221.96C149.76 206.36 133.56 195.56 113.64 189.56C102.12 186.2 90.1195 183.2 77.6396 180.56C65.1598 177.92 52.5597 175.88 39.8398 174.44C27.36 173.24 14.8802 172.64 2.40039 172.64ZM444.214 251.252L427.036 313.599L345.2 301.908V237.108L444.214 251.252ZM194 35.4805L294.8 49.8799V88.7598C294.8 106.28 298.16 121.52 304.88 134.48C311.6 147.44 321.08 157.52 333.32 164.72C345.8 172.16 360.44 175.88 377.24 175.88C391.16 175.88 403.28 172.88 413.6 166.88C423.92 160.88 431.84 152.48 437.36 141.68C443.12 130.88 446 118.28 446 103.88V13.8799L194 -21.7598V35.4805ZM399.2 64.2803V99.9199C399.2 109.76 396.56 116.24 391.28 119.36C386.24 122.48 380.6 124.04 374.36 124.04C365.96 124.04 358.4 121.28 351.68 115.76C344.96 110.24 341.6 102.56 341.6 92.7197V56.3604L399.2 64.2803Z" fill="white"/>
</svg>
