<svg width="1440" height="542" viewBox="0 0 1440 542" fill="none" xmlns="http://www.w3.org/2000/svg">
<path d="M1668.77 622.187L1457.8 1202.47L-253.524 580.28L-42.5518 0L1668.77 622.187ZM81.3877 562.5L126.156 578.965L166.413 504.27L196.822 515.453C210.525 520.493 223.41 522.249 235.479 520.721C247.549 519.193 258.16 514.678 267.312 507.176C276.72 499.555 283.841 489.175 288.674 476.035C292.678 465.148 293.817 454.806 292.093 445.009C290.369 435.212 286.078 426.601 279.219 419.177C272.429 411.565 263.402 405.689 252.14 401.547L181.749 375.658L81.3877 562.5ZM-56.9287 434.915C-64.3091 448.609 -67.492 461.61 -66.4775 473.916C-65.4631 486.222 -60.9578 497.149 -52.9619 506.695C-44.8968 516.054 -34.0131 523.254 -20.3105 528.294C-7.35884 533.057 5.02359 534.734 16.8359 533.325C28.9051 531.797 39.8567 527.514 49.6904 520.476C59.7119 513.506 67.9742 504.079 74.4766 492.193L145.283 362.247L100.232 345.679L31.0713 474.631C27.5785 481.231 22.7162 486.049 16.4854 489.085C10.3235 491.933 3.67584 492.045 -3.45703 489.422C-9.83884 487.075 -14.3946 482.949 -17.124 477.044C-19.6658 471.208 -18.5883 463.932 -13.8916 455.218L54.0566 328.695L9.00684 312.127L-56.9287 434.915ZM235.581 437.011C243.277 439.841 247.585 443.77 248.507 448.797C249.497 453.636 249.095 458.496 247.3 463.376C244.884 469.946 240.551 475.064 234.301 478.732C228.051 482.4 221.077 482.82 213.381 479.989L184.943 469.53L207.706 426.759L235.581 437.011ZM381.646 404.929L423.881 420.462L463.103 348.582L474.879 317.433C475.5 315.743 476.502 315.046 477.885 315.342C479.337 315.45 480.128 316.487 480.258 318.452L482.508 368.824L496.586 374.002L546.143 342.683C547.821 341.595 549.249 341.481 550.425 342.34C551.6 343.198 551.561 344.463 550.308 346.133L529.108 375.095L491.456 445.314L533.69 460.848L634.052 274.006L596.886 260.337L524.982 311.566C523.492 312.723 522.055 313.154 520.672 312.858C519.546 312.444 518.978 311.382 518.967 309.674L518.048 231.342L482.008 218.088L381.646 404.929ZM295.568 191.073L316.187 198.655L195.718 336.548L240.768 353.116L273.622 313.417L324.13 331.992L311.721 379.211L356.207 395.572L405.606 189.988L348.167 168.863L314.38 156.438L295.568 191.073ZM54.9912 284.792L176.063 329.319L196.191 291.972L115.946 262.459L136.593 223.704L212.052 251.456L230.581 216.717L155.123 188.965L176.051 150.313L256.296 179.825L276.425 142.478L155.353 97.9502L54.9912 284.792ZM353.528 216.864C354.713 215.382 355.893 215.07 357.069 215.929C358.502 216.669 358.907 217.884 358.286 219.573L342.132 263.496L334.088 294.101L299.986 281.559L353.528 216.864ZM-22.3838 77.333L21.2578 93.3838L-58.9746 242.877L-13.9248 259.445L66.3076 109.952L109.95 126.003L130.078 88.6553L-2.25586 39.9854L-22.3838 77.333Z" fill="#666B88"/>
</svg>
