<svg width="1125" height="176" viewBox="0 0 1125 176" fill="none" xmlns="http://www.w3.org/2000/svg">
<path d="M638.279 -113.076L645.779 -103.999L646 -103.73L645.826 -103.429L638.326 -90.4616L638.235 -90.3044L638.065 -90.2419L621.893 -84.3112V-75.2556L685.423 -79.7976L672.73 -84.1872L672.393 -84.3034V-97.4743L672.63 -97.6208L683.13 -104.105L683.305 -104.214L683.505 -104.167L711.505 -97.6833L711.514 -97.6804L711.523 -97.6784L735.523 -91.1941L735.6 -91.1735L735.667 -91.1306L760.167 -75.1364L760.208 -75.1091L760.243 -75.0749L760.248 -75.07C760.251 -75.0666 760.257 -75.0612 760.264 -75.0544C760.278 -75.0407 760.299 -75.0196 760.327 -74.9929C760.382 -74.9392 760.464 -74.8599 760.569 -74.7585C760.78 -74.5552 761.086 -74.2626 761.463 -73.906C762.219 -73.1925 763.261 -72.223 764.413 -71.2009C766.736 -69.1381 769.436 -66.918 771.115 -66.0886C772.805 -65.2538 775.632 -64.1349 777.965 -62.7175C779.142 -62.0024 780.238 -61.1866 781.044 -60.2526C781.854 -59.3149 782.393 -58.2306 782.393 -56.9948C782.393 -54.8973 782.646 -51.8833 782.134 -49.2273C781.614 -46.529 780.279 -44.0499 777.032 -43.114C773.991 -42.2376 768.452 -41.2589 763.231 -40.987C760.62 -40.8511 758.067 -40.891 755.935 -41.2155C753.831 -41.5357 752.02 -42.1491 751.021 -43.2595C749.18 -45.306 748.278 -48.4593 747.477 -51.1228C747.068 -52.4813 746.688 -53.7147 746.23 -54.6882C745.767 -55.6731 745.271 -56.2868 744.695 -56.5359C744.43 -56.6502 743.934 -56.7105 743.192 -56.6814C742.47 -56.653 741.584 -56.5442 740.586 -56.3737C738.593 -56.0331 736.205 -55.4565 733.898 -54.8366C731.593 -54.2174 729.381 -53.5569 727.744 -53.0515C726.925 -52.7988 726.251 -52.5849 725.782 -52.4343C725.548 -52.3591 725.364 -52.3001 725.24 -52.2595C725.192 -52.2438 725.152 -52.2313 725.122 -52.2214C725.11 -52.213 725.097 -52.2027 725.083 -52.1921C725.015 -52.1438 724.916 -52.0725 724.789 -51.9812C724.533 -51.7985 724.163 -51.5352 723.706 -51.2107C722.79 -50.5614 721.523 -49.668 720.115 -48.6941C717.304 -46.7498 713.913 -44.4693 711.643 -43.1609C710.405 -42.4473 708.955 -42.2556 707.486 -42.3044C706.017 -42.3533 704.478 -42.645 703.042 -42.9421C701.585 -43.2432 700.25 -43.5452 699.116 -43.6433C697.961 -43.7431 697.179 -43.6125 696.72 -43.2155C696.221 -42.7837 696.029 -42.2385 696.072 -41.6667C696.116 -41.0804 696.413 -40.4416 696.942 -39.8874C697.992 -38.7881 699.912 -38.078 702.23 -38.8796C704.765 -39.7561 710.423 -41.059 715.413 -42.1374C717.915 -42.6782 720.26 -43.1649 721.98 -43.5163C722.84 -43.692 723.544 -43.8343 724.033 -43.9323C724.277 -43.9813 724.468 -44.0198 724.597 -44.0456C724.662 -44.0585 724.712 -44.0683 724.746 -44.0749C724.762 -44.0781 724.774 -44.0801 724.783 -44.0817C724.787 -44.0825 724.79 -44.0833 724.792 -44.0837L724.795 -44.0847H724.796L724.853 -44.0954L724.911 -44.0935H724.929C724.941 -44.093 724.959 -44.0924 724.983 -44.0915C725.031 -44.0897 725.102 -44.0864 725.194 -44.0827C725.378 -44.0753 725.649 -44.0637 725.994 -44.0476C726.682 -44.0154 727.668 -43.9648 728.854 -43.8903C731.226 -43.7414 734.408 -43.4975 737.639 -43.1179C740.865 -42.7388 744.16 -42.2225 746.75 -41.5241C748.043 -41.1754 749.183 -40.7754 750.057 -40.3132C750.91 -39.8625 751.613 -39.2989 751.866 -38.571C752.649 -36.3123 752.643 -34.2843 752.454 -32.0954C752.263 -29.8951 751.893 -27.5712 751.893 -24.5739C751.893 -22.8834 751.084 -21.4904 749.87 -20.3405C748.662 -19.1974 747.026 -18.2656 745.288 -17.4734C743.546 -16.6793 741.666 -16.0103 739.958 -15.4099C738.234 -14.8043 736.704 -14.2741 735.61 -13.7487C735.201 -13.5524 734.95 -13.2202 734.831 -12.7351C734.707 -12.23 734.73 -11.5631 734.905 -10.7605C735.255 -9.15725 736.176 -7.17208 737.38 -5.22237C737.498 -5.03211 737.619 -4.84348 737.742 -4.65499L702.79 -1.29659L702.764 -1.29464L702.738 -1.28976L702.737 -1.28878H702.735C702.733 -1.28835 702.729 -1.28764 702.725 -1.28683C702.717 -1.28514 702.705 -1.28224 702.689 -1.27901C702.657 -1.27243 702.609 -1.26338 702.547 -1.25069C702.424 -1.22527 702.244 -1.18772 702.018 -1.14034C701.566 -1.04556 700.928 -0.910173 700.184 -0.747765C698.698 -0.423078 696.784 0.0111707 695.088 0.445595C694.241 0.66269 693.443 0.881185 692.778 1.0872C692.123 1.28986 691.563 1.49054 691.212 1.67704C691.122 1.72495 691.033 1.77846 690.956 1.83817C690.885 1.89257 690.786 1.98033 690.719 2.10575C690.64 2.25466 690.606 2.4675 690.719 2.67313C690.811 2.83953 690.959 2.92307 691.048 2.96415C691.233 3.04908 691.481 3.09152 691.748 3.11747C692.03 3.14498 692.392 3.15848 692.837 3.15849C696.276 3.15849 697.888 3.90392 698.635 4.55009C699.007 4.87167 699.181 5.18072 699.262 5.39188C699.303 5.49836 699.322 5.58348 699.331 5.63602C699.335 5.66153 699.337 5.67987 699.337 5.68876V6.22001L699.872 6.18388L744.372 3.15751L745.322 3.09306L744.729 2.34794L744.541 2.11063C744.67 2.14136 744.787 2.15848 744.893 2.15849C745.855 2.15848 746.465 2.05482 746.899 1.93388C747.117 1.87302 747.298 1.80597 747.467 1.73856C747.627 1.67483 747.809 1.59745 747.98 1.53837C748.364 1.40567 748.761 1.34085 749.334 1.43681C749.88 1.52817 750.582 1.7643 751.591 2.20048C753.739 3.12917 755.559 5.40625 756.814 7.35966C757.45 8.34975 757.958 9.28401 758.307 9.97001C758.482 10.3132 758.618 10.5953 758.709 10.7923C758.719 10.8133 758.728 10.8338 758.737 10.8528C758.853 10.8717 759.004 10.8974 759.188 10.928C759.645 11.0043 760.3 11.1158 761.091 11.2581C762.673 11.5425 764.805 11.9496 767.001 12.4378C769.195 12.9255 771.465 13.4968 773.317 14.1126C774.242 14.4202 775.075 14.7429 775.747 15.0765C776.402 15.402 776.966 15.768 777.289 16.1868C778.328 17.5351 779.601 20.0722 780.597 22.2259C781.1 23.3117 781.539 24.3158 781.853 25.0481C782.009 25.4129 782.134 25.7111 782.22 25.9183L819.37 24.2054L819.381 24.2044H819.445C819.48 24.2043 819.533 24.2039 819.6 24.2034C819.735 24.2024 819.932 24.2008 820.179 24.1966C820.674 24.1882 821.369 24.1715 822.168 24.138C823.772 24.0707 825.781 23.9367 827.439 23.6712C828.271 23.538 828.992 23.3748 829.524 23.18C829.79 23.0825 829.99 22.9831 830.128 22.888C830.269 22.7907 830.308 22.7232 830.317 22.7015C830.32 22.6942 830.32 22.6901 830.32 22.6849C830.319 22.6775 830.316 22.655 830.295 22.6155C830.25 22.5279 830.139 22.3889 829.901 22.2044C829.426 21.8356 828.574 21.3826 827.21 20.847C821.811 18.7253 816.526 18.7206 811.774 18.7747C809.41 18.8016 807.158 18.8432 805.123 18.6302C803.082 18.4166 801.213 17.9438 799.621 16.9114C796.579 14.9392 793.676 12.3181 791.541 10.2005C790.471 9.14003 789.591 8.2012 788.977 7.52763C788.67 7.1908 788.429 6.91978 788.265 6.7327C788.228 6.68989 788.194 6.65129 788.165 6.61747H781.836L781.781 6.60477L781.78 6.6038H781.778C781.776 6.60339 781.773 6.60261 781.77 6.60184C781.763 6.60022 781.752 6.59821 781.738 6.59501C781.709 6.58853 781.667 6.57825 781.612 6.56571C781.501 6.54052 781.336 6.50341 781.125 6.45634C780.703 6.36207 780.091 6.22739 779.335 6.06571C777.823 5.74215 775.733 5.31045 773.426 4.87919C768.797 4.01392 763.34 3.15851 759.893 3.15849C758.086 3.15848 756.911 2.71533 756.3 1.87138C755.695 1.03337 755.774 -0.0252792 756.038 -0.938194C756.306 -1.86766 756.803 -2.77779 757.219 -3.4421C757.429 -3.77735 757.623 -4.05745 757.765 -4.25362C757.836 -4.3516 757.894 -4.42954 757.935 -4.48312C757.955 -4.50968 757.972 -4.53026 757.983 -4.54464C757.988 -4.55178 757.993 -4.55728 757.997 -4.56124C757.998 -4.56301 757.999 -4.56503 758 -4.56612L758.001 -4.56808C758.003 -4.5669 758.021 -4.55309 758.208 -4.40401L758.001 -4.56905L758.121 -4.71847L758.31 -4.75069L775.745 -7.6921C774.691 -7.89306 773.463 -8.16665 772.223 -8.53194C770.552 -9.02408 768.83 -9.68959 767.477 -10.5798C766.132 -11.4653 765.068 -12.6307 764.896 -14.1433C764.799 -14.9983 764.965 -15.7441 765.356 -16.3796C765.742 -17.007 766.327 -17.495 767.016 -17.8796C768.383 -18.6421 770.265 -19.0576 772.191 -19.3308C774.12 -19.6044 776.186 -19.7453 777.902 -19.9206C778.769 -20.0092 779.549 -20.1068 780.2 -20.2331C780.86 -20.3614 781.343 -20.5112 781.643 -20.6843C782.304 -21.0655 782.88 -21.6759 783.414 -22.4362C783.947 -23.1965 784.418 -24.0744 784.888 -24.9685C785.352 -25.8504 785.818 -26.757 786.329 -27.5202C786.837 -28.2801 787.426 -28.9582 788.163 -29.3405C788.544 -29.5384 789.162 -29.7047 789.893 -29.8523C790.641 -30.0033 791.562 -30.1456 792.586 -30.278C794.638 -30.543 797.132 -30.7732 799.542 -30.9626C801.952 -31.1521 804.284 -31.3006 806.012 -31.4021C806.876 -31.4528 807.591 -31.4921 808.088 -31.5183C808.337 -31.5314 808.532 -31.5409 808.665 -31.5476C808.731 -31.5509 808.783 -31.5537 808.817 -31.5554C808.834 -31.5562 808.847 -31.5569 808.856 -31.5573H808.869L808.88 -31.5583H808.939C808.969 -31.5582 809.013 -31.5576 809.071 -31.5573C809.186 -31.5568 809.356 -31.5565 809.574 -31.5544C810.009 -31.5502 810.636 -31.5411 811.404 -31.5241C812.939 -31.4903 815.039 -31.4224 817.297 -31.2868C819.554 -31.1513 821.975 -30.9478 824.15 -30.6413C826.312 -30.3365 828.276 -29.9249 829.591 -29.3562C831.019 -28.739 831.931 -27.4033 832.516 -25.8659C833.103 -24.3225 833.389 -22.4985 833.516 -20.7741C833.643 -19.045 833.611 -17.3886 833.548 -16.1667C833.517 -15.5553 833.478 -15.0503 833.446 -14.698C833.441 -14.6433 833.435 -14.5918 833.43 -14.5446L878.467 0.858681C878.474 0.858467 878.481 0.858919 878.489 0.858681C878.563 0.856314 878.673 0.853298 878.816 0.848915C879.103 0.840141 879.524 0.827571 880.06 0.812782C881.132 0.783207 882.666 0.744483 884.515 0.707314C888.213 0.632969 893.171 0.56504 898.208 0.592079C903.242 0.619113 908.366 0.740923 912.391 1.04618C914.402 1.19869 916.154 1.39791 917.488 1.65751C918.154 1.78712 918.73 1.93491 919.189 2.10477C919.629 2.26776 920.034 2.47726 920.278 2.77274C920.371 2.88506 920.545 2.99298 920.853 3.08036C921.158 3.16684 921.539 3.21814 921.989 3.25809C922.852 3.33486 923.976 3.36614 924.956 3.60966C925.957 3.85869 926.935 4.3556 927.456 5.44462C927.963 6.50713 927.976 8.01563 927.374 10.1438C927.285 10.4554 927.265 10.9378 927.298 11.6009C927.331 12.2538 927.41 13.0156 927.488 13.8704C927.641 15.559 927.785 17.5682 927.487 19.4895C927.188 21.4193 926.436 23.3042 924.766 24.6985C923.141 26.0557 920.712 26.8897 917.163 26.93C915.703 29.0891 914.53 30.9953 913.471 32.3431C912.387 33.723 911.28 34.715 909.893 34.7151C903.597 34.7151 898.802 33.8435 895.575 32.9681C893.961 32.5304 892.739 32.0922 891.917 31.761C891.588 31.6289 891.325 31.5122 891.125 31.4212C891.097 31.476 891.069 31.5363 891.037 31.5999C890.833 32.001 890.531 32.575 890.131 33.2688C889.333 34.6559 888.147 36.5285 886.596 38.471C883.506 42.3424 878.91 46.5605 872.985 47.6741C870.014 48.2325 866.186 47.8658 862.037 47.1009C857.877 46.3341 853.326 45.1537 848.897 44.0481C844.456 42.9396 840.139 41.9061 836.406 41.4173C832.648 40.9252 829.597 41.0035 827.62 42.0091C825.533 43.0703 824.174 44.0937 823.205 45.0931C822.236 46.0911 821.638 47.0845 821.084 48.1204C819.967 50.2143 819.044 52.48 815.688 54.9349C815.424 55.128 815.038 55.301 814.579 55.4632C814.11 55.6288 813.526 55.797 812.841 55.9661C811.47 56.3045 809.662 56.6575 807.487 57.0218C803.134 57.7507 797.278 58.5297 790.444 59.3304C776.773 60.932 759.157 62.6213 741.75 64.1614C724.341 65.7016 707.136 67.0934 694.284 68.0999C687.857 68.6031 682.518 69.0101 678.787 69.2913C676.921 69.4319 675.456 69.5406 674.458 69.6145C673.96 69.6515 673.577 69.6796 673.32 69.6985C673.191 69.708 673.093 69.7152 673.028 69.72C672.995 69.7224 672.971 69.7247 672.955 69.7259C672.947 69.7265 672.94 69.7265 672.936 69.7268C672.934 69.727 672.932 69.7268 672.931 69.7268L672.893 69.2288L672.929 69.7278L672.856 69.7327L672.785 69.7171L606.875 55.0393L509.968 69.7229L509.889 69.7347L509.81 69.722H509.808C509.807 69.7218 509.806 69.7212 509.804 69.721C509.801 69.7204 509.796 69.7191 509.79 69.7181C509.777 69.7158 509.758 69.7126 509.733 69.7083C509.683 69.6995 509.608 69.6866 509.512 69.6692C509.32 69.6344 509.039 69.5821 508.683 69.512C507.97 69.3717 506.952 69.1599 505.733 68.8733C503.297 68.3005 500.047 67.4272 496.807 66.2268C493.573 65.0288 490.316 63.4927 487.886 61.5833C485.462 59.6781 483.776 57.3302 483.893 54.511C483.998 52.0037 485.504 49.8116 487.583 47.9602C489.667 46.1037 492.391 44.5315 495.074 43.263C497.761 41.9923 500.434 41.0151 502.431 40.3558C503.431 40.0259 504.263 39.7743 504.846 39.6058C505.138 39.5216 505.367 39.4581 505.524 39.4153C505.602 39.3939 505.664 39.3774 505.705 39.3665L505.763 39.3518L505.764 39.3509L505.766 39.3499H505.767L512.069 37.6741C513.049 36.05 513.608 33.2869 513.805 30.7044C513.906 29.3849 513.91 28.1436 513.838 27.1741C513.802 26.6888 513.747 26.2815 513.679 25.971C513.606 25.6374 513.533 25.4871 513.502 25.4495C512.362 24.0248 511.567 22.7872 510.87 21.7561C510.167 20.7167 509.573 19.9022 508.816 19.2474C507.327 17.9603 505.102 17.2068 499.873 16.9915C497.33 16.8868 495.707 17.4376 494.623 18.2835C493.533 19.134 492.918 20.3358 492.495 21.6683C492.283 22.3339 492.123 23.021 491.973 23.7034C491.825 24.3781 491.684 25.0601 491.516 25.68C491.187 26.8916 490.705 28.0727 489.615 28.6116C489.142 28.8453 488.108 29.2271 486.677 29.7093C485.234 30.1958 483.354 30.7948 481.165 31.4641C476.784 32.8033 471.153 34.4259 465.272 35.9944C459.392 37.5628 453.257 39.0787 447.87 40.2024C442.496 41.3233 437.825 42.0637 434.893 42.0638C433.441 42.0638 432.289 41.9815 431.397 41.8157C430.514 41.6515 429.832 41.3961 429.369 41.0081C428.877 40.5967 428.667 40.0672 428.68 39.4778C428.692 38.9215 428.902 38.3266 429.193 37.7249C429.77 36.533 430.806 35.0567 431.795 33.4583C432.804 31.8289 433.808 30.008 434.415 28.0169C435.11 25.7345 437.4 24.1707 440.255 22.8655C443.131 21.5508 446.788 20.4134 450.411 19.1018C454.06 17.7804 457.711 16.2711 460.693 14.1966C463.668 12.1273 465.95 9.51396 466.911 5.98563C468.891 -1.29208 467.213 -5.1822 464.712 -6.57589C462.177 -7.98859 458.426 -7.06094 455.774 -3.93429C454.316 -2.21568 452.063 -0.932788 449.283 -0.0719833C446.498 0.79021 443.151 1.24055 439.459 1.26786C432.076 1.32241 423.261 -0.313606 414.705 -3.79464C410.353 -5.56502 408.094 -8.06657 407.243 -10.8806C406.399 -13.6693 406.972 -16.6594 408.054 -19.3571C409.139 -22.0611 410.76 -24.5325 412.102 -26.32C412.774 -27.2156 413.38 -27.9436 413.818 -28.4489C414.037 -28.7016 414.214 -28.8993 414.337 -29.0339C414.399 -29.1011 414.447 -29.1531 414.48 -29.1882C414.496 -29.2056 414.509 -29.2191 414.518 -29.2282C414.522 -29.2327 414.526 -29.2365 414.528 -29.239L434.51 -52.9939L434.59 -53.0886L434.706 -53.1355L489.206 -75.1814L489.229 -75.1901L489.252 -75.198L523.193 -85.1228L544.641 -97.6276L544.721 -97.6745L544.813 -97.6892L584.785 -104.17L614.749 -113.236L614.819 -113.258H638.128L638.279 -113.076ZM562.531 -35.0632C560.002 -35.1654 556.969 -35.097 554.057 -34.9616C551.144 -34.8262 548.341 -34.6229 546.267 -34.4538C545.23 -34.3692 544.374 -34.293 543.778 -34.238C543.48 -34.2105 543.246 -34.1879 543.087 -34.1726C543.008 -34.1649 542.947 -34.159 542.906 -34.155C542.885 -34.153 542.869 -34.1512 542.859 -34.1501C542.854 -34.1496 542.85 -34.1494 542.847 -34.1491H542.843L542.769 -34.1413L542.7 -34.112H542.699L542.696 -34.111C542.693 -34.1101 542.69 -34.1081 542.685 -34.1062C542.676 -34.1023 542.662 -34.0969 542.645 -34.0896C542.61 -34.0745 542.557 -34.0514 542.489 -34.0222C542.352 -33.9637 542.153 -33.8774 541.899 -33.7663C541.392 -33.544 540.668 -33.222 539.801 -32.822C538.069 -32.0223 535.761 -30.9097 533.466 -29.6599C531.177 -28.4125 528.88 -27.0173 527.181 -25.6521C526.333 -24.9705 525.614 -24.2806 525.12 -23.6042C524.632 -22.9366 524.313 -22.2138 524.397 -21.49C524.54 -20.2576 525.276 -19.0268 526.356 -17.8698C527.443 -16.7055 528.921 -15.57 530.633 -14.528C534.059 -12.4441 538.489 -10.6948 542.793 -9.81905C547.072 -8.94879 549.135 -8.93821 550.714 -9.16573C552.326 -9.398 553.183 -9.80829 555.393 -9.80831C557.541 -9.80823 560.589 -8.86942 563.153 -7.8962C564.423 -7.41406 565.555 -6.93107 566.37 -6.56905C566.776 -6.38825 567.104 -6.23769 567.329 -6.13253C567.441 -6.08 567.529 -6.03838 567.587 -6.01046C567.616 -5.99677 567.638 -5.98624 567.653 -5.97921C567.66 -5.97581 567.666 -5.97312 567.669 -5.9714C567.671 -5.97066 567.673 -5.96983 567.673 -5.96944L567.674 -5.96847L567.778 -5.91866H594.008L594.112 -5.96847L602.085 -9.84737H602.088C602.108 -9.85439 602.137 -9.8652 602.174 -9.87862C602.249 -9.90559 602.358 -9.94524 602.494 -9.99679C602.766 -10.1 603.152 -10.251 603.604 -10.4431C604.506 -10.8262 605.687 -11.3776 606.779 -12.0437C607.856 -12.701 608.907 -13.506 609.487 -14.4167C609.782 -14.8802 609.971 -15.3977 609.954 -15.9509C609.936 -16.5105 609.707 -17.0495 609.271 -17.5525C608.977 -17.8917 608.463 -18.101 607.904 -18.2497C607.317 -18.4059 606.568 -18.5226 605.693 -18.6091C603.94 -18.7823 601.613 -18.8394 598.92 -18.8191C593.532 -18.7784 586.614 -18.4267 579.741 -18.0485C572.861 -17.6701 566.027 -17.2653 560.786 -17.1169C558.164 -17.0427 555.954 -17.0335 554.342 -17.1218C553.535 -17.166 552.895 -17.2339 552.434 -17.3259C552.204 -17.372 552.033 -17.4215 551.916 -17.4694C551.822 -17.5076 551.788 -17.5346 551.784 -17.5378C550.888 -18.7037 550.922 -19.6094 551.118 -20.2019C551.221 -20.5136 551.377 -20.7613 551.508 -20.9314C551.573 -21.0157 551.631 -21.0792 551.67 -21.1198C551.69 -21.1401 551.705 -21.1555 551.713 -21.1638C551.716 -21.1665 551.719 -21.1683 551.72 -21.1696V-21.1706H551.722V-21.1716L551.893 -21.3191V-25.9177L563.016 -28.8454L563.017 -28.8444H563.019C563.02 -28.8448 563.022 -28.8459 563.024 -28.8464C563.028 -28.8476 563.035 -28.8491 563.043 -28.8513C563.06 -28.8557 563.085 -28.8624 563.117 -28.8708C563.18 -28.8877 563.272 -28.9118 563.387 -28.9441C563.617 -29.0086 563.942 -29.1032 564.319 -29.2234C565.071 -29.4628 566.049 -29.8096 566.922 -30.2292C567.359 -30.439 567.78 -30.6725 568.138 -30.9265C568.49 -31.1765 568.814 -31.4684 569.017 -31.8064C569.23 -32.1609 569.32 -32.5848 569.15 -33.0251C568.991 -33.4368 568.636 -33.7803 568.156 -34.0769C567.629 -34.4022 566.826 -34.616 565.893 -34.7653C564.943 -34.9174 563.795 -35.0121 562.531 -35.0632Z" fill="#3CFEFE" fill-opacity="0.71"/>
<path d="M563.747 74.8485C561.247 77.0098 561.928 83.4939 564.747 85.223C567.566 86.9521 582.703 87.3843 593.247 87.3843L590.747 89.978H576.247C576.247 89.978 555.747 87.3843 549.747 87.3843C543.747 87.3843 500.247 89.978 500.247 89.978L491.747 84.3584C491.747 84.3584 469.247 80.9003 464.247 82.1971C459.247 83.4939 457.247 82.6293 460.247 85.223C463.247 87.8166 457.247 88.2489 461.247 89.1134C465.247 89.978 480.247 89.978 480.247 89.978L495.247 99.0557H520.247L529.747 103.378H543.247C545.747 103.378 546.247 106.404 543.247 106.404H536.247L529.747 108.998C529.747 108.998 527.247 112.888 529.747 115.914C532.247 118.94 536.247 117.643 536.247 117.643C536.247 117.643 533.747 121.966 536.247 124.127C536.247 124.127 545.747 123.263 547.747 124.127C549.747 124.992 545.747 129.315 547.747 130.611C549.747 131.908 553.747 133.205 553.747 133.205L549.747 141.851C549.747 141.851 536.252 140.802 527.747 141.851C509.504 144.1 480.247 159.574 485.247 159.574C490.247 159.574 509.747 165.625 516.747 165.625C523.747 165.625 522.747 163.896 527.747 162.167C532.747 160.438 549.747 162.167 549.747 162.167C549.747 162.167 547.247 167.787 549.747 168.651C552.247 169.516 585.747 174.271 591.747 175.135C597.747 176 606.247 176 611.247 176C616.247 176 614.914 172.11 614.247 170.38C613.581 168.651 604.747 169.516 603.747 168.651C602.747 167.787 612.247 167.355 611.247 165.625C610.247 163.896 578.747 159.574 578.747 159.574L585.747 157.412L596.747 152.225L623.747 154.386L627.247 162.167L642.747 165.625H667.247C667.247 165.625 669.247 160.87 667.247 159.574C665.247 158.277 650.247 158.709 648.247 157.412C646.247 156.116 646.747 155.251 648.247 154.386C649.747 153.522 683.247 155.683 685.747 154.386C688.247 153.09 690.247 149.199 690.247 149.199H722.247L737.247 141.851H757.747L770.247 127.586L729.747 133.205L673.247 146.606H655.747L627.247 149.199L593.247 141.851V136.231C593.247 136.231 620.247 135.366 623.747 133.205C627.247 131.044 629.747 124.127 629.747 124.127H596.747V117.643H578.747C578.747 117.643 580.247 112.456 578.747 111.159C577.247 109.862 563.747 111.159 563.747 111.159L573.747 108.998C573.747 108.998 579.747 109.862 582.747 108.998C585.747 108.133 601.247 100.785 601.247 100.785C601.247 100.785 620.247 102.082 623.747 100.785C627.247 99.4879 631.247 97.3266 631.247 97.3266C631.247 97.3266 648.247 97.3266 652.747 95.5975C657.247 93.8684 662.747 89.978 662.747 89.978V82.6293C662.747 82.6293 629.747 87.8166 629.747 85.223C629.747 82.6293 641.247 80.9003 642.747 77.8744C644.247 74.8485 642.747 70.0935 642.747 70.0935C642.747 70.0935 620.247 70.0935 616.247 72.6871C612.247 75.2807 612.747 77.8744 608.247 77.8744C603.747 77.8744 603.747 76.5775 601.247 74.8485C598.747 73.1194 566.247 72.6871 563.747 74.8485Z" fill="#6AFFFF" fill-opacity="0.56" style="mix-blend-mode:lighten"/>
<path d="M783.747 74.8485C781.247 77.0098 781.928 83.4939 784.747 85.223C787.566 86.9521 802.703 87.3843 813.247 87.3843L810.747 89.978H796.247C796.247 89.978 775.747 87.3843 769.747 87.3843C763.747 87.3843 720.247 89.978 720.247 89.978L711.747 84.3584C711.747 84.3584 689.247 80.9003 684.247 82.1971C679.247 83.4939 677.247 82.6293 680.247 85.223C683.247 87.8166 677.247 88.2489 681.247 89.1134C685.247 89.978 700.247 89.978 700.247 89.978L715.247 99.0557H740.247L749.747 103.378H763.247C765.747 103.378 766.247 106.404 763.247 106.404H756.247L749.747 108.998C749.747 108.998 747.247 112.888 749.747 115.914C752.247 118.94 756.247 117.643 756.247 117.643C756.247 117.643 753.747 121.966 756.247 124.127C756.247 124.127 765.747 123.263 767.747 124.127C769.747 124.992 765.747 129.315 767.747 130.611C769.747 131.908 773.747 133.205 773.747 133.205L769.747 141.851C769.747 141.851 756.252 140.802 747.747 141.851C729.504 144.1 700.247 159.574 705.247 159.574C710.247 159.574 729.747 165.625 736.747 165.625C743.747 165.625 742.747 163.896 747.747 162.167C752.747 160.438 769.747 162.167 769.747 162.167C769.747 162.167 767.247 167.787 769.747 168.651C772.247 169.516 805.747 174.271 811.747 175.135C817.747 176 826.247 176 831.247 176C836.247 176 834.914 172.11 834.247 170.38C833.581 168.651 824.747 169.516 823.747 168.651C822.747 167.787 832.247 167.355 831.247 165.625C830.247 163.896 798.747 159.574 798.747 159.574L805.747 157.412L816.747 152.225L843.747 154.386L847.247 162.167L862.747 165.625H887.247C887.247 165.625 889.247 160.87 887.247 159.574C885.247 158.277 870.247 158.709 868.247 157.412C866.247 156.116 866.747 155.251 868.247 154.386C869.747 153.522 903.247 155.683 905.747 154.386C908.247 153.09 910.247 149.199 910.247 149.199H942.247L957.247 141.851H977.747L990.247 127.586L949.747 133.205L893.247 146.606H875.747L847.247 149.199L813.247 141.851V136.231C813.247 136.231 840.247 135.366 843.747 133.205C847.247 131.044 849.747 124.127 849.747 124.127H816.747V117.643H798.747C798.747 117.643 800.247 112.456 798.747 111.159C797.247 109.862 783.747 111.159 783.747 111.159L793.747 108.998C793.747 108.998 799.747 109.862 802.747 108.998C805.747 108.133 821.247 100.785 821.247 100.785C821.247 100.785 840.247 102.082 843.747 100.785C847.247 99.4879 851.247 97.3266 851.247 97.3266C851.247 97.3266 868.247 97.3266 872.747 95.5975C877.247 93.8684 882.747 89.978 882.747 89.978V82.6293C882.747 82.6293 849.747 87.8166 849.747 85.223C849.747 82.6293 861.247 80.9003 862.747 77.8744C864.247 74.8485 862.747 70.0935 862.747 70.0935C862.747 70.0935 840.247 70.0935 836.247 72.6871C832.247 75.2807 832.747 77.8744 828.247 77.8744C823.747 77.8744 823.747 76.5775 821.247 74.8485C818.747 73.1194 786.247 72.6871 783.747 74.8485Z" fill="#6AFFFF" fill-opacity="0.56" style="mix-blend-mode:lighten"/>
<path d="M953.755 64.3656C956.246 62.1966 955.538 55.7146 952.712 53.9943C949.886 52.2739 934.748 51.8885 924.203 51.9211L926.693 49.3198L941.193 49.2749C941.193 49.2749 961.703 51.8051 967.703 51.7865C973.703 51.768 1017.19 49.0398 1017.19 49.0398L1025.72 54.633C1025.72 54.633 1048.23 58.0215 1053.22 56.7092C1058.22 55.397 1060.22 56.2553 1057.21 53.671C1054.2 51.0866 1060.2 50.6358 1056.2 49.7836C1052.19 48.9315 1037.19 48.9779 1037.19 48.9779L1022.15 39.9467L997.155 40.024L987.637 35.7307L974.137 35.7725C971.637 35.7802 971.124 32.7559 974.124 32.7466L981.124 32.7249L987.614 30.1112C987.614 30.1112 990.097 26.2131 987.585 23.1949C985.072 20.1768 981.078 21.4859 981.078 21.4859C981.078 21.4859 983.56 17.1555 981.051 15.0019C981.051 15.0019 971.555 15.8958 969.551 15.0375C967.547 14.1791 971.53 9.84408 969.524 8.55346C967.519 7.26284 963.513 5.97841 963.513 5.97841L967.478 -2.67934C967.478 -2.67934 980.977 -1.67212 989.478 -2.7474C1007.71 -5.05369 1036.9 -20.6174 1031.9 -20.6019C1026.9 -20.5864 1007.38 -26.5779 1000.38 -26.5562C993.379 -26.5346 994.386 -24.8086 989.393 -23.064C984.401 -21.3195 967.394 -22.996 967.394 -22.996C967.394 -22.996 969.87 -28.6232 967.367 -29.48C964.863 -30.3368 931.344 -34.9881 925.34 -35.8341C919.336 -36.6801 910.837 -36.6538 905.837 -36.6383C900.837 -36.6228 902.186 -32.7365 902.86 -31.0095C903.534 -29.2825 912.363 -30.1744 913.367 -29.3129C914.371 -28.4515 904.872 -27.9898 905.88 -26.2639C906.887 -24.5379 938.405 -20.3126 938.405 -20.3126L931.414 -18.1296L920.435 -12.9084L893.426 -14.9862L889.894 -22.7562L874.38 -26.1664L849.88 -26.0906C849.88 -26.0906 847.9 -21.3295 849.905 -20.0388C851.91 -18.7482 866.909 -19.2269 868.914 -17.9363C870.919 -16.6457 870.423 -15.7796 868.926 -14.9104C867.43 -14.0412 833.921 -16.0989 831.427 -14.7944C828.932 -13.4898 826.948 -9.59324 826.948 -9.59324L794.948 -9.49424L779.979 -2.09926L759.479 -2.03584L747.038 12.2677L787.515 6.52291L843.959 -7.05222L861.459 -7.10636L889.948 -9.78815L923.978 -2.54476L924.001 3.07473C924.001 3.07473 897.005 4.0228 893.514 6.19497C890.023 8.36715 887.552 15.2912 887.552 15.2912L920.551 15.1891L920.578 21.6731L938.578 21.6174C938.578 21.6174 937.1 26.8093 938.605 28.1015C940.11 29.3936 953.605 28.0551 953.605 28.0551L943.614 30.2473C943.614 30.2473 937.61 29.4014 934.614 30.2752C931.617 31.149 916.148 38.5455 916.148 38.5455C916.148 38.5455 897.143 37.3075 893.648 38.6151C890.154 39.9228 886.163 42.0965 886.163 42.0965C886.163 42.0965 869.163 42.1491 864.67 43.8921C860.177 45.6351 854.693 49.5425 854.693 49.5425L854.724 56.8911C854.724 56.8911 887.702 51.6018 887.713 54.1954C887.723 56.789 876.231 58.5536 874.743 61.5842C873.256 64.6147 874.775 69.365 874.775 69.365C874.775 69.365 897.275 69.2954 901.264 66.6894C905.254 64.0834 904.743 61.4913 909.243 61.4774C913.743 61.4635 913.748 62.7603 916.255 64.4816C918.762 66.203 951.264 66.5347 953.755 64.3656Z" fill="#6AFFFF" fill-opacity="0.56" style="mix-blend-mode:lighten"/>
<path d="M1061.82 117.39C1064.31 114.863 1063.6 107.31 1060.77 105.304C1057.95 103.298 1042.81 102.841 1032.26 102.874L1034.75 99.8439L1049.25 99.7991C1049.25 99.7991 1069.76 102.758 1075.76 102.739C1081.76 102.721 1125.25 99.564 1125.25 99.564L1133.78 106.086C1133.78 106.086 1156.29 110.046 1161.29 108.519C1166.28 106.993 1168.29 107.994 1165.27 104.981C1162.26 101.968 1168.26 101.446 1164.25 100.451C1160.25 99.4557 1145.25 99.5021 1145.25 99.5021L1130.21 88.9709L1105.21 89.0483L1095.69 84.0408L1082.19 84.0825C1079.69 84.0903 1079.17 80.566 1082.17 80.5567L1089.17 80.535L1095.66 77.4927C1095.66 77.4927 1098.14 72.9518 1095.63 69.4337C1093.11 65.9156 1089.12 67.439 1089.12 67.439C1089.12 67.439 1091.6 62.3943 1089.09 59.8836C1089.09 59.8836 1079.59 60.9204 1077.59 59.9192C1075.58 58.918 1079.56 53.8687 1077.56 52.3638C1075.55 50.8589 1071.54 49.3602 1071.54 49.3602L1075.5 39.274C1075.5 39.274 1089 40.4545 1097.5 39.2059C1115.73 36.5279 1144.91 18.4076 1139.91 18.423C1134.92 18.4385 1115.39 11.4471 1108.39 11.4688C1101.39 11.4904 1102.39 13.5021 1097.4 15.5324C1092.41 17.5626 1075.4 15.6004 1075.4 15.6004C1075.4 15.6004 1077.88 9.04468 1075.37 8.04503C1072.87 7.04538 1039.34 1.60841 1033.34 0.619577C1027.34 -0.369244 1018.84 -0.342948 1013.84 -0.327479C1008.84 -0.312011 1010.19 4.2171 1010.86 6.22981C1011.54 8.24252 1020.37 7.20781 1021.37 8.2121C1022.38 9.21639 1012.88 9.74947 1013.89 11.7611C1014.9 13.7728 1046.42 18.7123 1046.42 18.7123L1039.43 21.2524L1028.45 27.3308L1001.44 24.8958L997.903 15.8402L982.387 11.8586L957.887 11.9344C957.887 11.9344 955.91 17.4812 957.916 18.9861C959.922 20.491 974.92 19.9409 976.926 21.4458C978.933 22.9507 978.437 23.9596 976.941 24.9716C975.445 25.9837 941.935 23.5688 939.441 25.0876C936.948 26.6065 934.966 31.1459 934.966 31.1459L902.966 31.2449L888.002 39.8541L867.502 39.9175L855.071 56.578L895.544 49.9047L951.979 34.1154L969.479 34.0613L997.966 30.951L1032 39.4086L1032.03 45.9566C1032.03 45.9566 1005.03 47.0475 1001.54 49.5768C998.053 52.1061 995.587 60.1729 995.587 60.1729L1028.59 60.0708L1028.62 67.6262L1046.62 67.5705C1046.62 67.5705 1045.14 73.6194 1046.65 75.1259C1048.16 76.6323 1061.65 75.0795 1061.65 75.0795L1051.66 77.6289C1051.66 77.6289 1045.66 76.6401 1042.66 77.6567C1039.66 78.6734 1024.2 87.2841 1024.2 87.2841C1024.2 87.2841 1005.19 85.8318 1001.7 87.3537C998.206 88.8756 994.216 91.4065 994.216 91.4065C994.216 91.4065 977.216 91.4591 972.725 93.4878C968.233 95.5164 962.752 100.067 962.752 100.067L962.787 108.629C962.787 108.629 995.762 102.483 995.775 105.505C995.787 108.527 984.295 110.578 982.81 114.108C981.325 117.639 982.848 123.175 982.848 123.175C982.848 123.175 1005.35 123.105 1009.33 120.071C1013.32 117.036 1012.81 114.015 1017.31 114.001C1021.81 113.988 1021.82 115.499 1024.32 117.506C1026.83 119.513 1059.33 119.916 1061.82 117.39Z" fill="#6AFFFF" fill-opacity="0.4" style="mix-blend-mode:lighten"/>
<path fill-rule="evenodd" clip-rule="evenodd" d="M635.338 144.876C640.838 147.038 686.838 137.96 686.838 137.96L707.838 134.07L729.338 122.831L735.838 118.94C735.838 118.94 741.838 112.024 739.838 110.727C737.838 109.43 710.838 110.727 710.838 110.727L707.838 107.701L712.338 106.404L715.838 105.108L755.338 105.972C755.338 105.972 756.838 102.514 755.338 101.217C754.791 100.744 753.978 99.8119 753.093 98.797C751.551 97.0278 749.791 95.0077 748.838 94.733C747.338 94.3007 735.838 94.733 735.838 94.733L730.963 92.1394C730.963 92.1394 720.838 90.8426 717.338 90.8426C715.808 90.8426 713.513 91.2556 711.332 91.6483C708.523 92.154 705.9 92.626 705.338 92.1394C704.977 91.8276 704.486 91.7407 704.006 91.6557C703.155 91.5049 702.338 91.36 702.338 89.978C702.338 87.8167 703.338 87.3844 704.338 87.8167C705.338 88.2489 715.338 88.2489 715.338 88.2489L732.588 86.9521L735.838 82.6294L763.838 80.4681C763.838 80.4681 763.838 74.4163 759.838 72.6872C755.838 70.9581 697.838 76.5776 697.838 76.5776C697.838 76.5776 672.338 79.1712 669.338 80.4681C666.338 81.7649 664.671 88.6812 665.504 90.4103C666.338 92.1394 676.838 92.1394 676.838 92.1394L684.838 90.8426L688.338 92.1394L689.838 94.733L676.838 96.0298L663.838 94.733L651.338 101.217H635.338L625.338 105.108H603.338C603.338 105.108 593.838 109.43 593.338 110.727C592.838 112.024 599.838 112.024 603.338 110.727C605.484 109.932 606.502 112.389 607.546 114.906C608.203 116.493 608.871 118.105 609.838 118.94C612.338 121.102 640.838 122.831 640.838 122.831C640.838 122.831 636.838 127.153 638.838 129.315C639.909 130.473 646.128 130.825 651.604 131.134C656.346 131.402 660.531 131.639 660.338 132.341C659.679 135.471 650.238 134.867 643.73 134.45C640.352 134.234 637.765 134.069 637.605 134.502C636.806 136.672 635.991 138.093 635.338 137.528C633.338 135.799 610.838 136.231 612.338 137.96C613.192 138.945 618.751 140.351 624.394 141.778C628.658 142.856 632.97 143.946 635.338 144.876ZM703.338 127.153C700.838 127.153 689.338 128.018 689.338 128.018L674.338 132.341C674.338 132.341 670.338 132.773 670.338 131.476C670.338 130.179 673.838 128.45 673.838 128.45C673.838 128.45 683.338 123.263 685.338 124.127C686.358 124.569 687.51 124.334 688.591 124.114C689.629 123.903 690.603 123.704 691.338 124.127C692.838 124.992 703.338 124.992 703.338 124.992L705.338 125.857C705.338 125.857 705.838 127.153 703.338 127.153ZM668.338 117.211C666.838 117.643 648.838 117.211 648.838 117.211C648.838 117.211 646.838 115.914 646.338 115.05C645.838 114.185 652.338 112.456 653.838 113.753C655.338 115.05 668.338 112.888 668.338 112.888C668.474 112.415 668.246 111.748 668.033 111.125C667.727 110.231 667.453 109.43 668.338 109.43H671.338H693.338C693.338 109.43 695.338 111.592 694.338 112.024C693.338 112.456 691.338 112.888 691.338 112.888C691.338 112.888 671.838 112.024 671.338 112.888C671.226 113.081 671.09 113.381 670.928 113.737C670.367 114.974 669.503 116.875 668.338 117.211Z" fill="#6AFFFF" fill-opacity="0.74"/>
<path fill-rule="evenodd" clip-rule="evenodd" d="M811.863 145.207C817.363 147.368 863.363 138.291 863.363 138.291L884.363 134.4L905.863 123.161L912.363 119.271C912.363 119.271 918.363 112.354 916.363 111.058C914.363 109.761 887.363 111.058 887.363 111.058L884.363 108.032L888.863 106.735L892.363 105.438L931.863 106.303C931.863 106.303 933.363 102.844 931.863 101.548C931.316 101.075 930.503 100.142 929.619 99.1274C928.077 97.3583 926.316 95.3381 925.363 95.0635C923.863 94.6312 912.363 95.0635 912.363 95.0635L907.488 92.4698C907.488 92.4698 897.363 91.173 893.863 91.173C892.333 91.173 890.039 91.586 887.857 91.9788C885.048 92.4844 882.426 92.9564 881.863 92.4698C881.502 92.1581 881.012 92.0712 880.532 91.9861C879.681 91.8353 878.863 91.6905 878.863 90.3085C878.863 88.1471 879.863 87.7148 880.863 88.1471C881.863 88.5794 891.863 88.5794 891.863 88.5794L909.113 87.2826L912.363 82.9599L940.363 80.7985C940.363 80.7985 940.363 74.7467 936.363 73.0176C932.363 71.2885 874.363 76.9081 874.363 76.9081C874.363 76.9081 848.863 79.5017 845.863 80.7985C842.863 82.0953 841.196 89.0117 842.03 90.7407C842.863 92.4698 853.363 92.4698 853.363 92.4698L861.363 91.173L864.863 92.4698L866.363 95.0635L853.363 96.3603L840.363 95.0635L827.863 101.548H811.863L801.863 105.438H779.863C779.863 105.438 770.363 109.761 769.863 111.058C769.363 112.354 776.363 112.354 779.863 111.058C782.01 110.262 783.028 112.719 784.071 115.237C784.729 116.824 785.396 118.435 786.363 119.271C788.863 121.432 817.363 123.161 817.363 123.161C817.363 123.161 813.363 127.484 815.363 129.645C816.435 130.804 822.653 131.155 828.129 131.465C832.871 131.733 837.057 131.969 836.863 132.671C836.205 135.802 826.763 135.197 820.255 134.781C816.878 134.565 814.291 134.399 814.131 134.832C813.331 137.002 812.517 138.424 811.863 137.858C809.863 136.129 787.363 136.562 788.863 138.291C789.717 139.276 795.276 140.681 800.92 142.108C805.184 143.186 809.496 144.277 811.863 145.207ZM879.863 127.484C877.363 127.484 865.863 128.348 865.863 128.348L850.863 132.671C850.863 132.671 846.863 133.103 846.863 131.807C846.863 130.51 850.363 128.781 850.363 128.781C850.363 128.781 859.863 123.593 861.863 124.458C862.884 124.899 864.035 124.665 865.117 124.444C866.155 124.233 867.129 124.035 867.863 124.458C869.363 125.322 879.863 125.322 879.863 125.322L881.863 126.187C881.863 126.187 882.363 127.484 879.863 127.484ZM844.863 117.542C843.363 117.974 825.363 117.542 825.363 117.542C825.363 117.542 823.363 116.245 822.863 115.38C822.363 114.516 828.863 112.787 830.363 114.083C831.863 115.38 844.863 113.219 844.863 113.219C845 112.746 844.771 112.078 844.559 111.456C844.253 110.562 843.979 109.761 844.863 109.761H847.863H869.863C869.863 109.761 871.863 111.922 870.863 112.354C869.863 112.787 867.863 113.219 867.863 113.219C867.863 113.219 848.363 112.354 847.863 113.219C847.751 113.412 847.615 113.712 847.454 114.067C846.892 115.304 846.028 117.206 844.863 117.542Z" fill="#6AFFFF" fill-opacity="0.35"/>
<path d="M255.131 -112.984L321.022 -98.2393L417.947 -112.825L418.026 -112.837L418.105 -112.824L418.021 -112.331L418.106 -112.824H418.107C418.108 -112.824 418.11 -112.824 418.111 -112.823C418.115 -112.823 418.12 -112.821 418.126 -112.82C418.139 -112.818 418.158 -112.815 418.183 -112.811C418.233 -112.802 418.307 -112.788 418.403 -112.771C418.595 -112.735 418.876 -112.684 419.232 -112.613C419.945 -112.472 420.963 -112.259 422.182 -111.972C424.617 -111.396 427.865 -110.519 431.104 -109.315C434.336 -108.114 437.591 -106.575 440.019 -104.663C442.44 -102.755 444.123 -100.406 444.002 -97.5869C443.894 -95.0798 442.385 -92.8893 440.304 -91.04C438.217 -89.1857 435.491 -87.6164 432.806 -86.3506C430.116 -85.0827 427.443 -84.1075 425.444 -83.4502C424.445 -83.1214 423.612 -82.871 423.028 -82.7031C422.737 -82.6193 422.508 -82.5553 422.351 -82.5127C422.272 -82.4914 422.211 -82.4757 422.17 -82.4648L422.111 -82.4502L422.11 -82.4492L422.108 -82.4482H422.107L415.804 -80.7783C414.821 -79.1552 414.258 -76.3928 414.058 -73.8105C413.955 -72.4913 413.949 -71.2498 414.02 -70.2803C414.055 -69.7951 414.109 -69.3877 414.177 -69.0771C414.249 -68.744 414.323 -68.5936 414.354 -68.5557C415.492 -67.1299 416.286 -65.8912 416.981 -64.8594C417.683 -63.8194 418.275 -63.0042 419.031 -62.3486C420.518 -61.0601 422.742 -60.3046 427.972 -60.084C430.515 -59.9767 432.138 -60.5262 433.224 -61.3711C434.315 -62.2205 434.932 -63.421 435.356 -64.7529C435.569 -65.4182 435.729 -66.105 435.88 -66.7871C436.029 -67.4616 436.171 -68.144 436.34 -68.7637C436.67 -69.9748 437.154 -71.1555 438.245 -71.6934C438.718 -71.9266 439.754 -72.3074 441.185 -72.7881C442.628 -73.2732 444.509 -73.87 446.699 -74.5371C451.082 -75.8718 456.715 -77.4893 462.598 -79.0518C468.48 -80.6141 474.617 -82.1239 480.006 -83.2422C485.381 -84.3576 490.053 -85.0928 492.985 -85.0898C494.437 -85.0884 495.589 -85.0055 496.48 -84.8389C497.364 -84.6738 498.045 -84.4168 498.508 -84.0283C498.999 -83.6165 499.208 -83.0873 499.194 -82.498C499.181 -81.9418 498.972 -81.3465 498.68 -80.7451C498.101 -79.5539 497.062 -78.0787 496.071 -76.4814C495.061 -74.8533 494.053 -73.0341 493.444 -71.0439C492.746 -68.7621 490.454 -67.1999 487.597 -65.8975C484.719 -64.5857 481.06 -63.4514 477.437 -62.1436C473.785 -60.8258 470.132 -59.3205 467.147 -57.249C464.17 -55.1828 461.884 -52.5712 460.919 -49.0439C458.929 -41.7687 460.601 -37.8768 463.1 -36.4805C465.633 -35.0652 469.385 -35.9894 472.042 -39.1133C473.502 -40.8303 475.757 -42.1108 478.538 -42.9688C481.324 -43.8281 484.672 -44.2752 488.363 -44.2988C495.747 -44.3459 504.56 -42.7006 513.111 -39.2109C517.46 -37.4363 519.716 -34.9328 520.563 -32.1182C521.403 -29.3286 520.827 -26.3382 519.741 -23.6416C518.652 -20.939 517.028 -18.4697 515.684 -16.6836C515.01 -15.7887 514.403 -15.0605 513.965 -14.5557C513.746 -14.3033 513.568 -14.1061 513.444 -13.9717C513.383 -13.9046 513.335 -13.8524 513.302 -13.8174C513.285 -13.8 513.272 -13.7865 513.264 -13.7773C513.259 -13.7729 513.256 -13.769 513.254 -13.7666L493.239 9.96777L493.159 10.0625L493.044 10.1094L438.514 32.0996L438.49 32.1084L438.467 32.1162L404.513 42.0068L383.048 54.4902L382.968 54.5371L382.876 54.5518L342.896 60.9912L312.92 70.0273L312.849 70.0488L289.539 70.0254L289.391 69.8438L281.902 60.7588L281.682 60.4902L281.855 60.1895L289.373 47.2295L289.464 47.0723L289.634 47.0098L305.814 41.0957L305.826 32.04L242.29 36.5176L254.978 40.9199L255.314 41.0371L255.296 54.208L255.059 54.3535L244.55 60.8271L244.375 60.9355L244.175 60.8887L216.184 54.377L216.175 54.374L216.166 54.3721L192.175 47.8633L192.098 47.8428L192.031 47.7998L167.553 31.7812L167.512 31.7539L167.477 31.7197L167.473 31.7148C167.469 31.7115 167.463 31.7058 167.456 31.6992C167.442 31.6855 167.421 31.6634 167.394 31.6367C167.338 31.5829 167.256 31.5038 167.151 31.4023C166.941 31.1989 166.636 30.9056 166.259 30.5488C165.505 29.8346 164.462 28.8641 163.312 27.8408C160.992 25.7757 158.295 23.5528 156.617 22.7217C154.929 21.8852 152.103 20.7634 149.771 19.3438C148.595 18.6274 147.5 17.8107 146.695 16.876C145.887 15.9375 145.35 14.8528 145.352 13.6172C145.354 11.5197 145.105 8.50507 145.62 5.84961C146.144 3.15197 147.483 0.673928 150.731 -0.258789C153.774 -1.13208 159.314 -2.10545 164.535 -2.37207C167.146 -2.50535 169.698 -2.46231 171.83 -2.13574C173.934 -1.81342 175.745 -1.19831 176.742 -0.0869141C178.58 1.96143 179.478 5.11601 180.275 7.78027C180.682 9.13906 181.062 10.3727 181.519 11.3467C181.98 12.3317 182.474 12.9466 183.05 13.1963C183.314 13.3109 183.811 13.3712 184.553 13.3428C185.274 13.3152 186.161 13.2074 187.158 13.0381C189.152 12.6995 191.542 12.1253 193.85 11.5078C196.155 10.8909 198.368 10.2323 200.006 9.72852C200.824 9.47673 201.499 9.26344 201.969 9.11328C202.203 9.03841 202.386 8.97991 202.511 8.93945C202.559 8.92384 202.599 8.91121 202.629 8.90137C202.64 8.89307 202.653 8.88258 202.668 8.87207C202.735 8.82388 202.835 8.75229 202.963 8.66113C203.218 8.47874 203.589 8.21547 204.047 7.8916C204.963 7.24336 206.231 6.35128 207.641 5.37891C210.454 3.43751 213.848 1.16065 216.12 -0.145508C217.359 -0.857658 218.809 -1.04836 220.278 -0.998047C221.747 -0.947698 223.285 -0.653985 224.722 -0.355469C226.178 -0.0528978 227.513 0.250368 228.646 0.349609C229.801 0.450559 230.583 0.320301 231.043 -0.0761719C231.543 -0.507471 231.737 -1.05239 231.694 -1.62402C231.651 -2.21037 231.354 -2.84959 230.825 -3.4043C229.776 -4.50447 227.858 -5.21606 225.539 -4.41699C223.003 -3.54302 217.342 -2.24615 212.352 -1.17285C209.849 -0.634623 207.503 -0.150476 205.782 0.199219C204.922 0.374004 204.218 0.515753 203.729 0.613281C203.486 0.661952 203.295 0.700905 203.165 0.726562C203.1 0.739378 203.049 0.748305 203.016 0.754883C203 0.75802 202.987 0.76008 202.979 0.761719C202.975 0.762479 202.971 0.763269 202.969 0.763672L202.966 0.764648H202.965L202.908 0.775391L202.851 0.773438H202.832C202.82 0.772988 202.802 0.772373 202.778 0.771484C202.731 0.769648 202.659 0.76648 202.567 0.762695C202.383 0.755083 202.112 0.742976 201.769 0.726562C201.08 0.693679 200.094 0.64207 198.908 0.566406C196.536 0.41508 193.354 0.168053 190.124 -0.214844C186.898 -0.597232 183.605 -1.11636 181.016 -1.81738C179.723 -2.16738 178.584 -2.56921 177.71 -3.03223C176.858 -3.48382 176.155 -4.04827 175.903 -4.77637C175.123 -7.03566 175.131 -9.06347 175.324 -11.252C175.518 -13.4521 175.891 -15.7762 175.896 -18.7734C175.898 -20.4638 176.708 -21.8563 177.924 -23.0049C179.133 -24.1468 180.771 -25.0767 182.51 -25.8672C184.253 -26.6594 186.133 -27.3261 187.843 -27.9248C189.567 -28.5286 191.1 -29.0578 192.194 -29.582C192.603 -29.778 192.854 -30.1101 192.974 -30.5947C193.098 -31.0997 193.076 -31.7666 192.902 -32.5693C192.554 -34.1729 191.636 -36.1594 190.434 -38.1104C190.316 -38.3006 190.195 -38.4892 190.073 -38.6777L225.03 -42.001L225.056 -42.0029L225.082 -42.0078L225.083 -42.0088H225.085C225.087 -42.0092 225.091 -42.0099 225.095 -42.0107C225.103 -42.0124 225.115 -42.0154 225.131 -42.0186C225.163 -42.0251 225.211 -42.0343 225.272 -42.0469C225.396 -42.0722 225.576 -42.1091 225.802 -42.1562C226.254 -42.2506 226.893 -42.3852 227.637 -42.5469C229.124 -42.87 231.037 -43.3027 232.733 -43.7354C233.581 -43.9516 234.379 -44.1687 235.045 -44.374C235.7 -44.576 236.26 -44.7767 236.611 -44.9629C236.701 -45.0107 236.79 -45.0644 236.868 -45.124C236.939 -45.1783 237.038 -45.2657 237.104 -45.3906C237.184 -45.5394 237.218 -45.7523 237.105 -45.958C237.014 -46.1245 236.866 -46.2088 236.777 -46.25C236.593 -46.3351 236.344 -46.3771 236.078 -46.4033C235.796 -46.4311 235.434 -46.4458 234.988 -46.4463C231.55 -46.4498 229.939 -47.1968 229.192 -47.8438C228.821 -48.1656 228.648 -48.4743 228.566 -48.6855C228.526 -48.7919 228.507 -48.8771 228.498 -48.9297C228.494 -48.955 228.492 -48.9734 228.491 -48.9824L228.492 -49.5137L227.958 -49.4785L183.454 -46.4971L182.504 -46.4336L183.096 -45.6875L183.283 -45.4512C183.155 -45.4819 183.037 -45.4989 182.932 -45.499C181.97 -45.5 181.359 -45.3969 180.925 -45.2764C180.707 -45.2157 180.525 -45.1483 180.356 -45.0811C180.197 -45.0176 180.015 -44.9407 179.845 -44.8818C179.461 -44.7495 179.063 -44.6848 178.489 -44.7812C177.944 -44.8732 177.242 -45.1098 176.233 -45.5469C174.087 -46.4777 172.271 -48.7574 171.019 -50.7119C170.384 -51.7026 169.876 -52.6369 169.527 -53.3232C169.353 -53.6666 169.219 -53.9494 169.127 -54.1465C169.117 -54.1675 169.108 -54.188 169.1 -54.207C168.984 -54.226 168.832 -54.2514 168.648 -54.2822C168.192 -54.359 167.537 -54.4713 166.746 -54.6143C165.164 -54.9003 163.032 -55.3094 160.837 -55.7998C158.644 -56.2897 156.375 -56.8639 154.524 -57.4814C153.6 -57.7899 152.767 -58.1131 152.096 -58.4473C151.441 -58.7735 150.877 -59.1405 150.555 -59.5596C149.517 -60.9089 148.248 -63.447 147.255 -65.6016C146.754 -66.6879 146.316 -67.6931 146.003 -68.4258C145.847 -68.7904 145.723 -69.0887 145.637 -69.2959L108.484 -67.6211L108.473 -67.6201H108.409C108.374 -67.62 108.321 -67.6196 108.254 -67.6191C108.119 -67.6182 107.922 -67.6162 107.675 -67.6123C107.18 -67.6044 106.485 -67.5894 105.686 -67.5566C104.082 -67.491 102.073 -67.3585 100.414 -67.0947C99.5826 -66.9625 98.8611 -66.7997 98.3291 -66.6055C98.0631 -66.5083 97.8627 -66.4093 97.7246 -66.3145C97.5832 -66.2171 97.5436 -66.1496 97.5352 -66.1279C97.5324 -66.1207 97.5318 -66.1165 97.5322 -66.1113C97.5329 -66.1039 97.5364 -66.0814 97.5566 -66.042C97.6018 -65.9544 97.7131 -65.8154 97.9502 -65.6309C98.425 -65.2617 99.2776 -64.8085 100.64 -64.2715C106.036 -62.1445 111.321 -62.1334 116.073 -62.1826C118.437 -62.2071 120.69 -62.2463 122.725 -62.0312C124.764 -61.8156 126.633 -61.3405 128.224 -60.3066C131.262 -58.3314 134.162 -55.7077 136.295 -53.5879C137.363 -52.5263 138.243 -51.5863 138.855 -50.9121C139.162 -50.5752 139.402 -50.3034 139.565 -50.1162C139.603 -50.0735 139.637 -50.0347 139.666 -50.001L145.994 -49.9951L146.05 -49.9824L146.051 -49.9814H146.053C146.054 -49.981 146.057 -49.9802 146.061 -49.9795C146.068 -49.9779 146.079 -49.9759 146.093 -49.9727C146.121 -49.9661 146.164 -49.9559 146.219 -49.9434C146.33 -49.9181 146.494 -49.8803 146.705 -49.833C147.127 -49.7383 147.739 -49.6028 148.494 -49.4404C150.006 -49.1154 152.095 -48.6816 154.401 -48.248C159.029 -47.3781 164.485 -46.5182 167.933 -46.5146C169.74 -46.5128 170.914 -46.0672 171.523 -45.2227C172.128 -44.384 172.047 -43.3257 171.782 -42.4131C171.512 -41.4839 171.015 -40.574 170.598 -39.9102C170.387 -39.5755 170.193 -39.2966 170.051 -39.1006C169.98 -39.0027 169.921 -38.9247 169.88 -38.8711C169.86 -38.8445 169.843 -38.823 169.832 -38.8086C169.827 -38.8018 169.822 -38.7959 169.819 -38.792C169.818 -38.7903 169.816 -38.7882 169.815 -38.7871L169.814 -38.7852H169.813C169.81 -38.7873 169.787 -38.8054 169.606 -38.9492L169.813 -38.7842L169.694 -38.6348L169.505 -38.6025L152.067 -35.6787C153.12 -35.4767 154.348 -35.2024 155.587 -34.8359C157.257 -34.3421 158.979 -33.6747 160.33 -32.7832C161.674 -31.8964 162.736 -30.7295 162.906 -29.2168C163.002 -28.3618 162.835 -27.6165 162.443 -26.9814C162.056 -26.3544 161.471 -25.8663 160.781 -25.4824C159.414 -24.7215 157.532 -24.3083 155.605 -24.0371C153.676 -23.7654 151.609 -23.6267 149.893 -23.4531C149.026 -23.3655 148.247 -23.2682 147.596 -23.1426C146.935 -23.015 146.451 -22.8661 146.15 -22.6934C145.489 -22.3128 144.912 -21.7021 144.377 -20.9424C143.842 -20.1828 143.371 -19.3055 142.899 -18.4121C142.435 -17.5306 141.966 -16.624 141.455 -15.8613C140.946 -15.1022 140.357 -14.4245 139.619 -14.043C139.237 -13.8456 138.619 -13.68 137.889 -13.5332C137.141 -13.383 136.219 -13.2427 135.194 -13.1113C133.143 -12.8484 130.648 -12.6195 128.238 -12.4326C125.828 -12.2456 123.495 -12.0997 121.767 -12C120.902 -11.9502 120.188 -11.9115 119.69 -11.8857C119.442 -11.8729 119.247 -11.864 119.114 -11.8574L118.924 -11.8477H118.91L118.898 -11.8467H118.841C118.811 -11.8468 118.766 -11.8473 118.708 -11.8477C118.592 -11.8483 118.422 -11.8492 118.205 -11.8516C117.77 -11.8562 117.143 -11.8651 116.375 -11.8828C114.84 -11.9182 112.739 -11.9891 110.481 -12.127C108.225 -12.2647 105.804 -12.4706 103.63 -12.7793C101.468 -13.0862 99.5053 -13.4994 98.1904 -14.0693C96.7638 -14.6879 95.8531 -16.0247 95.2705 -17.5625C94.6857 -19.1064 94.4017 -20.9309 94.2773 -22.6553C94.1527 -24.3843 94.1862 -26.0409 94.251 -27.2627C94.2834 -27.8739 94.3233 -28.3791 94.3555 -28.7314C94.3605 -28.786 94.3665 -28.8377 94.3711 -28.8848L49.3555 -44.334C49.3488 -44.3338 49.3414 -44.3342 49.334 -44.334C49.2599 -44.3317 49.1499 -44.3285 49.0068 -44.3242C48.7201 -44.3157 48.2987 -44.3043 47.7627 -44.29C46.6905 -44.2616 45.1561 -44.2238 43.3076 -44.1885C39.6098 -44.1179 34.651 -44.0548 29.6143 -44.0869C24.5799 -44.1191 19.4566 -44.2463 15.4316 -44.5557C13.4212 -44.7102 11.6703 -44.911 10.3369 -45.1719C9.67139 -45.3021 9.09494 -45.4508 8.63672 -45.6211C8.19719 -45.7845 7.79189 -45.9944 7.54785 -46.29C7.45523 -46.4024 7.28129 -46.511 6.97363 -46.5986C6.66859 -46.6855 6.28643 -46.7369 5.83691 -46.7773C4.97356 -46.8549 3.85055 -46.8874 2.87109 -47.1318C1.86959 -47.3819 0.892119 -47.8802 0.373047 -48.9697C-0.133065 -50.0327 -0.14363 -51.5416 0.461914 -53.6689C0.55046 -53.9804 0.571143 -54.4632 0.539062 -55.126C0.50742 -55.7789 0.428857 -56.5408 0.352539 -57.3955C0.201759 -59.0842 0.060961 -61.0937 0.361328 -63.0146C0.663128 -64.944 1.41734 -66.8281 3.08887 -68.2207C4.71624 -69.5762 7.14632 -70.4077 10.6953 -70.4443C12.1576 -72.602 13.3343 -74.5068 14.3945 -75.8535C15.48 -77.2322 16.5885 -78.2228 17.9756 -78.2217C24.2716 -78.2153 29.0645 -77.3396 32.291 -76.4609C33.904 -76.0217 35.1267 -75.582 35.9482 -75.25C36.2758 -75.1176 36.5393 -75.0004 36.7393 -74.9092C36.7666 -74.9639 36.7948 -75.0244 36.8271 -75.0879C37.0314 -75.4888 37.3361 -76.0624 37.7363 -76.7559C38.5364 -78.142 39.7244 -80.0134 41.2773 -81.9541C44.373 -85.8224 48.975 -90.0359 54.9014 -91.1436C57.8734 -91.6989 61.7001 -91.3286 65.8486 -90.5596C70.0075 -89.7886 74.5571 -88.6032 78.9844 -87.4932C83.4234 -86.3802 87.7395 -85.3422 91.4717 -84.8496C95.229 -84.3538 98.2799 -84.4291 100.259 -85.4326C102.347 -86.4917 103.707 -87.5143 104.678 -88.5127C105.647 -89.5097 106.248 -90.5019 106.803 -91.5371C107.923 -93.6299 108.849 -95.8953 112.208 -98.3467C112.472 -98.5395 112.859 -98.7124 113.318 -98.874C113.787 -99.0391 114.371 -99.2066 115.056 -99.375C116.427 -99.712 118.237 -100.063 120.413 -100.425C124.767 -101.149 130.624 -101.923 137.459 -102.717C151.132 -104.305 168.75 -105.976 186.159 -107.498C203.569 -109.021 220.776 -110.395 233.63 -111.389C240.057 -111.885 245.397 -112.287 249.129 -112.564C250.995 -112.703 252.459 -112.81 253.457 -112.883C253.956 -112.919 254.338 -112.947 254.596 -112.966C254.724 -112.975 254.822 -112.983 254.888 -112.987C254.92 -112.99 254.944 -112.992 254.961 -112.993C254.969 -112.994 254.975 -112.994 254.979 -112.994C254.981 -112.994 254.983 -112.995 254.984 -112.995L255.022 -112.496L254.986 -112.995L255.06 -113L255.131 -112.984ZM333.701 -37.2188L325.723 -33.3477H325.72C325.7 -33.3407 325.671 -33.3316 325.634 -33.3184C325.559 -33.2915 325.45 -33.2505 325.314 -33.1992C325.042 -33.0963 324.656 -32.9455 324.203 -32.7539C323.3 -32.3717 322.119 -31.8211 321.026 -31.1562C319.948 -30.5 318.896 -29.6962 318.315 -28.7861C318.02 -28.3231 317.829 -27.806 317.846 -27.2529C317.863 -26.6933 318.091 -26.1537 318.526 -25.6504C318.82 -25.311 319.334 -25.1015 319.893 -24.9521C320.479 -24.7954 321.229 -24.6772 322.104 -24.5898C323.856 -24.4149 326.183 -24.3555 328.875 -24.373C334.264 -24.4082 341.182 -24.7529 348.056 -25.124C354.936 -25.4955 361.771 -25.894 367.013 -26.0371C369.634 -26.1087 371.845 -26.1153 373.456 -26.0254C374.263 -25.9804 374.903 -25.9118 375.363 -25.8193C375.594 -25.7731 375.765 -25.7229 375.882 -25.6748C375.974 -25.6368 376.009 -25.6099 376.014 -25.6064C376.908 -24.4398 376.872 -23.5347 376.676 -22.9424C376.572 -22.6307 376.415 -22.3828 376.284 -22.2129C376.219 -22.1287 376.161 -22.0649 376.122 -22.0244C376.103 -22.0043 376.088 -21.9887 376.079 -21.9805C376.076 -21.9779 376.074 -21.9759 376.072 -21.9746V-21.9736H376.07V-21.9727L375.899 -21.8252L375.894 -17.2266L364.767 -14.3105L364.766 -14.3115H364.764C364.763 -14.3112 364.761 -14.3101 364.759 -14.3096C364.754 -14.3084 364.746 -14.3068 364.738 -14.3047C364.721 -14.3003 364.696 -14.2934 364.665 -14.2852C364.602 -14.2684 364.509 -14.2439 364.395 -14.2119C364.164 -14.1476 363.84 -14.0533 363.463 -13.9336C362.711 -13.6949 361.732 -13.3493 360.858 -12.9307C360.421 -12.7214 360 -12.4879 359.642 -12.2344C359.289 -11.9847 358.964 -11.6932 358.761 -11.3555C358.547 -11.0013 358.458 -10.5771 358.627 -10.1367C358.785 -9.72511 359.14 -9.3809 359.619 -9.08398C360.145 -8.75819 360.949 -8.54384 361.881 -8.39355C362.831 -8.24053 363.98 -8.14512 365.243 -8.09277C367.772 -7.98805 370.805 -8.05316 373.717 -8.18555C376.63 -8.31802 379.434 -8.51852 381.508 -8.68555C382.545 -8.76906 383.401 -8.84403 383.997 -8.89844C384.295 -8.92561 384.529 -8.94769 384.688 -8.96289C384.767 -8.97046 384.828 -8.97646 384.869 -8.98047C384.889 -8.98243 384.906 -8.98431 384.916 -8.98535C384.921 -8.98582 384.925 -8.98609 384.928 -8.98633H384.932L385.006 -8.99414L385.075 -9.02344H385.076L385.079 -9.02441C385.081 -9.02538 385.085 -9.02742 385.09 -9.0293C385.099 -9.0331 385.113 -9.03859 385.13 -9.0459C385.165 -9.06091 385.218 -9.08418 385.286 -9.11328C385.423 -9.17164 385.623 -9.25734 385.877 -9.36816C386.385 -9.58991 387.109 -9.91154 387.976 -10.3105C389.709 -11.1084 392.019 -12.2184 394.314 -13.4658C396.606 -14.7109 398.905 -16.1043 400.605 -17.4678C401.454 -18.1484 402.175 -18.8379 402.67 -19.5137C403.159 -20.1807 403.478 -20.9031 403.396 -21.627C403.254 -22.8594 402.52 -24.091 401.441 -25.249C400.356 -26.4145 398.879 -27.5511 397.168 -28.5947C393.745 -30.6821 389.318 -32.4363 385.015 -33.3164C380.738 -34.1909 378.674 -34.2034 377.095 -33.9775C375.483 -33.7469 374.625 -33.3376 372.415 -33.3398C370.267 -33.3421 367.221 -34.284 364.658 -35.2598C363.389 -35.7432 362.256 -36.227 361.442 -36.5898C361.036 -36.771 360.709 -36.922 360.484 -37.0273C360.372 -37.08 360.284 -37.1224 360.226 -37.1504C360.197 -37.164 360.175 -37.1746 360.16 -37.1816C360.153 -37.185 360.147 -37.1878 360.144 -37.1895C360.142 -37.1901 360.14 -37.1911 360.14 -37.1914L360.139 -37.1924L360.035 -37.2422L333.805 -37.2686L333.701 -37.2188Z" fill="#3CFEFE" fill-opacity="0.73"/>
</svg>
